<svg xmlns="http://www.w3.org/2000/svg" width="140" height="72" viewBox="0 0 140 72"><g transform="translate(30,70) scale(0.8)"><ellipse cx="0" cy="-30" rx="26" ry="20" fill="#ffb46b" opacity="0.18"/><path d="M-4,0 C-5,-14 -3,-22 -2,-28 L2,-28 C3,-22 5,-14 4,0Z" fill="#e8dcc0"/><path d="M-18,-26 C-16,-42 16,-42 18,-26 C10,-29 -10,-29 -18,-26Z" fill="#7a3f2a"/><circle cx="-7" cy="-34" r="2" fill="#f5ecd2"/><circle cx="5" cy="-36" r="1.6" fill="#f5ecd2"/><circle cx="11" cy="-31" r="1.3" fill="#f5ecd2"/></g><g transform="translate(58,70) scale(1.1)"><ellipse cx="0" cy="-30" rx="26" ry="20" fill="#7fe0c0" opacity="0.18"/><path d="M-4,0 C-5,-14 -3,-22 -2,-28 L2,-28 C3,-22 5,-14 4,0Z" fill="#e8dcc0"/><path d="M-18,-26 C-16,-42 16,-42 18,-26 C10,-29 -10,-29 -18,-26Z" fill="#2f6b5a"/><circle cx="-7" cy="-34" r="2" fill="#f5ecd2"/><circle cx="5" cy="-36" r="1.6" fill="#f5ecd2"/><circle cx="11" cy="-31" r="1.3" fill="#f5ecd2"/></g><g transform="translate(86,70) scale(0.65)"><ellipse cx="0" cy="-30" rx="26" ry="20" fill="#ffb46b" opacity="0.18"/><path d="M-4,0 C-5,-14 -3,-22 -2,-28 L2,-28 C3,-22 5,-14 4,0Z" fill="#e8dcc0"/><path d="M-18,-26 C-16,-42 16,-42 18,-26 C10,-29 -10,-29 -18,-26Z" fill="#7a3f2a"/><circle cx="-7" cy="-34" r="2" fill="#f5ecd2"/><circle cx="5" cy="-36" r="1.6" fill="#f5ecd2"/><circle cx="11" cy="-31" r="1.3" fill="#f5ecd2"/></g><g transform="translate(108,70) scale(0.9)"><ellipse cx="0" cy="-30" rx="26" ry="20" fill="#c4e36b" opacity="0.18"/><path d="M-4,0 C-5,-14 -3,-22 -2,-28 L2,-28 C3,-22 5,-14 4,0Z" fill="#e8dcc0"/><path d="M-18,-26 C-16,-42 16,-42 18,-26 C10,-29 -10,-29 -18,-26Z" fill="#4a5f2a"/><circle cx="-7" cy="-34" r="2" fill="#f5ecd2"/><circle cx="5" cy="-36" r="1.6" fill="#f5ecd2"/><circle cx="11" cy="-31" r="1.3" fill="#f5ecd2"/></g><path d="M4,70 q-4.0,-8 -0.0,-11.6" stroke="#5d7a35" stroke-width="1.4" fill="none"/><path d="M9,70 q-1.6,-8 -2.2,-10.8" stroke="#5d7a35" stroke-width="1.4" fill="none"/><path d="M14,70 q-1.5,-8 2.0,-8.0" stroke="#5d7a35" stroke-width="1.4" fill="none"/><path d="M19,70 q2.0,-8 2.0,-9.0" stroke="#5d7a35" stroke-width="1.4" fill="none"/><path d="M24,70 q3.4,-8 1.3,-15.2" stroke="#5d7a35" stroke-width="1.4" fill="none"/><path d="M29,70 q-1.7,-8 -0.8,-11.1" stroke="#5d7a35" stroke-width="1.4" fill="none"/><path d="M34,70 q4.0,-8 0.5,-10.9" stroke="#5d7a35" stroke-width="1.4" fill="none"/><path d="M39,70 q-0.6,-8 -1.3,-8.4" stroke="#5d7a35" stroke-width="1.4" fill="none"/><path d="M44,70 q-3.2,-8 2.0,-10.3" stroke="#5d7a35" stroke-width="1.4" fill="none"/><path d="M49,70 q3.5,-8 -1.5,-10.1" stroke="#5d7a35" stroke-width="1.4" fill="none"/><path d="M54,70 q0.1,-8 -1.9,-11.0" stroke="#5d7a35" stroke-width="1.4" fill="none"/><path d="M59,70 q3.6,-8 2.3,-14.5" stroke="#5d7a35" stroke-width="1.4" fill="none"/><path d="M64,70 q1.0,-8 2.5,-15.5" stroke="#5d7a35" stroke-width="1.4" fill="none"/><path d="M69,70 q0.4,-8 1.3,-8.4" stroke="#5d7a35" stroke-width="1.4" fill="none"/><path d="M74,70 q1.9,-8 -0.3,-14.0" stroke="#5d7a35" stroke-width="1.4" fill="none"/><path d="M79,70 q1.2,-8 -1.3,-8.4" stroke="#5d7a35" stroke-width="1.4" fill="none"/><path d="M84,70 q3.4,-8 -2.2,-11.8" stroke="#5d7a35" stroke-width="1.4" fill="none"/><path d="M89,70 q-1.3,-8 -1.2,-13.9" stroke="#5d7a35" stroke-width="1.4" fill="none"/><path d="M94,70 q3.8,-8 -1.4,-13.2" stroke="#5d7a35" stroke-width="1.4" fill="none"/><path d="M99,70 q-1.6,-8 0.3,-11.2" stroke="#5d7a35" stroke-width="1.4" fill="none"/><path d="M104,70 q-2.7,-8 -2.0,-9.7" stroke="#5d7a35" stroke-width="1.4" fill="none"/><path d="M109,70 q3.2,-8 -0.0,-9.8" stroke="#5d7a35" stroke-width="1.4" fill="none"/><path d="M114,70 q3.3,-8 3.0,-11.6" stroke="#5d7a35" stroke-width="1.4" fill="none"/><path d="M119,70 q-2.9,-8 -1.8,-8.7" stroke="#5d7a35" stroke-width="1.4" fill="none"/><path d="M124,70 q-1.3,-8 -2.5,-9.9" stroke="#5d7a35" stroke-width="1.4" fill="none"/><path d="M129,70 q-1.9,-8 0.4,-15.1" stroke="#5d7a35" stroke-width="1.4" fill="none"/><path d="M134,70 q2.0,-8 -0.5,-11.3" stroke="#5d7a35" stroke-width="1.4" fill="none"/></svg>